<svg xmlns="http://www.w3.org/2000/svg" fill="none" viewBox="0 0 20 20">
  <g clip-path="url(#JGq3dnEpHa)" fill="#111827">
    <path d="M1 3.125C1 1.399 2.36 0 4.036 0 5.713 0 7.07 1.4 7.07 3.125c0 1.727-1.358 3.125-3.035 3.125S1 4.852 1 3.125zm3.036.938c.503 0 .91-.42.91-.938a.925.925 0 00-.91-.938c-.503 0-.911.42-.911.938s.408.938.91.938zm7.893-.938C11.929 1.399 13.287 0 14.964 0 16.642 0 18 1.4 18 3.125c0 1.727-1.358 3.125-3.036 3.125-1.677 0-3.035-1.398-3.035-3.125zm3.035.938c.505 0 .911-.42.911-.938a.923.923 0 00-.91-.938c-.505 0-.911.42-.911.938s.406.938.91.938zm-2.428 12.812C12.536 18.602 11.177 20 9.5 20s-3.036-1.398-3.036-3.125S7.823 13.75 9.5 13.75s3.036 1.398 3.036 3.125zM9.5 15.937a.922.922 0 00-.91.938c0 .52.405.938.91.938s.91-.418.91-.938a.922.922 0 00-.91-.938z"/>
    <path opacity=".4" d="M5.25 7.5c0 .691.543 1.25 1.214 1.25h6.072c.671 0 1.214-.559 1.214-1.25V5.988a2.939 2.939 0 002.429 0V7.5c0 2.07-1.632 3.75-3.643 3.75h-1.822v2.762a2.94 2.94 0 00-2.428 0V11.25H6.464c-2.012 0-3.643-1.68-3.643-3.75V5.988a2.941 2.941 0 002.429 0V7.5z"/>
  </g>
  <defs>
    <clipPath id="JGq3dnEpHa">
      <path fill="#fff" d="M0 0h20v20H0z"/>
    </clipPath>
  </defs>
</svg>
