<svg xmlns="http://www.w3.org/2000/svg" fill="none" viewBox="0 0 13 16">
  <g clip-path="url(#849WB-LfTa)" fill="#000">
    <path d="M8.247 0c.351 0 .673.214.83.553L9.286 1h2.785c.514 0 .929.448.929 1s-.415 1-.929 1H.93C.416 3 0 2.552 0 2s.416-1 .929-1h2.785l.21-.447A.923.923 0 014.753 0h3.493z"/>
    <path opacity=".4" d="M12.071 14c0 1.103-.832 2-1.857 2H2.786C1.76 16 .929 15.103.929 14V3H12.07v11zM4.18 5.5c0-.275-.21-.5-.465-.5s-.464.225-.464.5v7c0 .275.209.5.464.5.256 0 .465-.225.465-.5v-7zm2.785 0c0-.275-.209-.5-.464-.5s-.464.225-.464.5v7c0 .275.209.5.464.5s.464-.225.464-.5v-7zm2.786 0c0-.275-.209-.5-.464-.5-.256 0-.465.225-.465.5v7c0 .275.21.5.465.5s.464-.225.464-.5v-7z"/>
  </g>
  <defs>
    <clipPath id="849WB-LfTa">
      <path fill="#fff" d="M0 0h13v16H0z"/>
    </clipPath>
  </defs>
</svg>
